<svg width="37" height="38" viewBox="0 0 37 38" fill="none" xmlns="http://www.w3.org/2000/svg">
<path d="M19.3455 19.8394C24.4089 19.8394 28.5136 15.7347 28.5136 10.6713C28.5136 5.60793 24.4089 1.50324 19.3455 1.50324C14.2821 1.50324 10.1774 5.60793 10.1774 10.6713C10.1774 15.7347 14.2821 19.8394 19.3455 19.8394Z" stroke="#F39022" stroke-opacity="0.9" stroke-width="3" stroke-miterlimit="10" stroke-linecap="round" stroke-linejoin="round"/>
<path d="M19.3455 19.8394C24.4089 19.8394 28.5136 15.7347 28.5136 10.6713C28.5136 5.60793 24.4089 1.50324 19.3455 1.50324C14.2821 1.50324 10.1774 5.60793 10.1774 10.6713C10.1774 15.7347 14.2821 19.8394 19.3455 19.8394Z" stroke="#FF5100" stroke-opacity="0.9" stroke-width="3" stroke-miterlimit="10" stroke-linecap="round" stroke-linejoin="round"/>
<path d="M35.4967 33.8048C35.4967 26.0903 29.2453 19.8389 21.5308 19.8389H17.1605C9.44603 19.8389 3.19463 26.0903 3.19463 33.8048" stroke="#F39022" stroke-width="3" stroke-miterlimit="10" stroke-linecap="round" stroke-linejoin="round"/>
<path d="M35.4967 33.8048C35.4967 26.0903 29.2453 19.8389 21.5308 19.8389H17.1605C9.44603 19.8389 3.19463 26.0903 3.19463 33.8048" stroke="#E84039" stroke-width="3" stroke-miterlimit="10" stroke-linecap="round" stroke-linejoin="round"/>
<g opacity="0.15">
<g opacity="0.15">
<g opacity="0.15">
<path d="M17.6541 21.7011C22.7175 21.7011 26.8222 17.5964 26.8222 12.533C26.8222 7.46961 22.7175 3.36492 17.6541 3.36492C12.5908 3.36492 8.48606 7.46961 8.48606 12.533C8.48606 17.5964 12.5908 21.7011 17.6541 21.7011Z" stroke="#F39022" stroke-opacity="0.9" stroke-width="3" stroke-miterlimit="10" stroke-linecap="round" stroke-linejoin="round"/>
<path d="M17.6541 21.7011C22.7175 21.7011 26.8222 17.5964 26.8222 12.533C26.8222 7.46961 22.7175 3.36492 17.6541 3.36492C12.5908 3.36492 8.48606 7.46961 8.48606 12.533C8.48606 17.5964 12.5908 21.7011 17.6541 21.7011Z" stroke="#FF5100" stroke-opacity="0.9" stroke-width="3" stroke-miterlimit="10" stroke-linecap="round" stroke-linejoin="round"/>
</g>
</g>
<g opacity="0.15">
<path d="M33.8053 35.6672C33.8053 27.9527 27.5539 21.7013 19.8394 21.7013H15.4691C7.75464 21.7013 1.50324 27.9527 1.50324 35.6672" stroke="#F39022" stroke-opacity="0.9" stroke-width="3" stroke-miterlimit="10" stroke-linecap="round" stroke-linejoin="round"/>
<path d="M33.8053 35.6672C33.8053 27.9527 27.5539 21.7013 19.8394 21.7013H15.4691C7.75464 21.7013 1.50324 27.9527 1.50324 35.6672" stroke="#FF5100" stroke-opacity="0.9" stroke-width="3" stroke-miterlimit="10" stroke-linecap="round" stroke-linejoin="round"/>
</g>
</g>
</svg>
