<svg width="19" height="16" viewBox="0 0 19 16" fill="none" xmlns="http://www.w3.org/2000/svg">
<path d="M17.7247 6.92663H3.72792C3.72548 6.92663 3.72304 6.92175 3.72548 6.92175L9.00507 1.8471C9.43202 1.43722 9.44666 0.756534 9.03434 0.32958C8.62447 -0.0973741 7.94378 -0.112012 7.51683 0.300303L0.329364 7.2072C0.119547 7.40969 0 7.69026 0 7.98059C0 8.27336 0.119547 8.55149 0.329364 8.75399L7.55586 15.6999C7.76324 15.9 8.03161 16 8.29998 16C8.58299 16 8.86356 15.8902 9.07338 15.6706C9.48325 15.2437 9.47106 14.563 9.0441 14.1531L3.76451 9.07847C3.76207 9.07603 3.76451 9.07359 3.76695 9.07359H17.7491C18.32 9.07359 18.786 8.62712 18.8201 8.06598C18.8567 7.44385 18.3468 6.92663 17.7247 6.92663Z" fill="#1F1F1F"/>
</svg>
