<svg width="13" height="13" viewBox="0 0 13 13" fill="none" xmlns="http://www.w3.org/2000/svg">
<path d="M0.349207 5.65437C0.349504 5.65408 0.349802 5.65378 0.3501 5.65348L5.65361 0.350708C5.87967 0.124573 6.18022 0 6.49992 0C6.81962 0 7.12017 0.124474 7.34633 0.350609L12.6471 5.6507C12.6488 5.65249 12.6506 5.65437 12.6524 5.65616C13.1166 6.12301 13.1158 6.88046 12.6501 7.34612C12.4374 7.55897 12.1564 7.68225 11.8559 7.69514C11.8437 7.69633 11.8314 7.69693 11.819 7.69693H11.6076V11.5994C11.6076 12.3717 10.9792 13 10.2067 13H8.13183C7.92154 13 7.75093 12.8295 7.75093 12.6191V9.55957C7.75093 9.20718 7.46427 8.92054 7.11184 8.92054H5.888C5.53557 8.92054 5.24891 9.20718 5.24891 9.55957V12.6191C5.24891 12.8295 5.0784 13 4.86801 13H2.79311C2.0206 13 1.39221 12.3717 1.39221 11.5994V7.69693H1.19621C0.876612 7.69693 0.576059 7.57246 0.349802 7.34632C-0.116402 6.87987 -0.1166 6.12112 0.349207 5.65437Z" fill="white"/>
</svg>
