<?xml version="1.0" encoding="utf-8"?>
<!-- Generator: Adobe Illustrator 25.2.1, SVG Export Plug-In . SVG Version: 6.00 Build 0)  -->
<svg version="1.1" id="Capa_1" xmlns="http://www.w3.org/2000/svg" xmlns:xlink="http://www.w3.org/1999/xlink" x="0px" y="0px"
	 viewBox="0 0 1080 1080" style="enable-background:new 0 0 1080 1080;" xml:space="preserve">
<style type="text/css">
	.st0{fill:#E9550F;}
</style>
<g>
	<path class="st0" d="M794.1,259.35H285.9c-56.88,0-103.15,46.27-103.15,103.15v354.99c0,56.88,46.28,103.15,103.15,103.15h508.2
		c56.88,0,103.15-46.28,103.15-103.15V362.51C897.25,305.63,850.98,259.35,794.1,259.35z M794.1,308.66c4.22,0,8.31,0.54,12.25,1.46
		L591.95,553.4c-13.15,14.91-32.08,23.46-51.95,23.46c-19.88,0-38.81-8.55-51.95-23.46l-214.4-243.28
		c3.94-0.92,8.03-1.46,12.24-1.46H794.1z M847.94,717.49c0,29.69-24.15,53.84-53.85,53.84H285.9c-29.69,0-53.84-24.15-53.84-53.84
		V362.51c0-7.22,1.45-14.11,4.04-20.41l214.97,243.91c22.5,25.52,54.92,40.16,88.94,40.16c34.01,0,66.43-14.64,88.94-40.16
		l214.96-243.9c2.59,6.29,4.04,13.18,4.04,20.4V717.49z"/>
</g>
</svg>
