<svg width="16" height="16" viewBox="0 0 16 16" fill="none" xmlns="http://www.w3.org/2000/svg">
<path d="M1.61086 10.4185L5.77097 14.586C6.58545 15.4019 7.9095 15.4019 8.72398 14.586L14.8054 8.49383C15.0393 8.25951 15.173 7.93733 15.173 7.60679V1H8.57779C8.24365 1 7.92621 1.13389 7.69231 1.36821L1.61086 7.46034C0.79638 8.27625 0.79638 9.60263 1.61086 10.4185Z" stroke="#F39022" stroke-opacity="0.9" stroke-miterlimit="10" stroke-linecap="round" stroke-linejoin="round"/>
<path d="M1.61086 10.4185L5.77097 14.586C6.58545 15.4019 7.9095 15.4019 8.72398 14.586L14.8054 8.49383C15.0393 8.25951 15.173 7.93733 15.173 7.60679V1H8.57779C8.24365 1 7.92621 1.13389 7.69231 1.36821L1.61086 7.46034C0.79638 8.27625 0.79638 9.60263 1.61086 10.4185Z" stroke="#FF5100" stroke-opacity="0.9" stroke-miterlimit="10" stroke-linecap="round" stroke-linejoin="round"/>
<path d="M11.0338 6.8577C11.9565 6.8577 12.7045 6.10838 12.7045 5.18404C12.7045 4.2597 11.9565 3.51038 11.0338 3.51038C10.111 3.51038 9.36304 4.2597 9.36304 5.18404C9.36304 6.10838 10.111 6.8577 11.0338 6.8577Z" fill="#F39022" fill-opacity="0.9"/>
<path d="M11.0338 6.8577C11.9565 6.8577 12.7045 6.10838 12.7045 5.18404C12.7045 4.2597 11.9565 3.51038 11.0338 3.51038C10.111 3.51038 9.36304 4.2597 9.36304 5.18404C9.36304 6.10838 10.111 6.8577 11.0338 6.8577Z" fill="#FF5100" fill-opacity="0.9"/>
</svg>
