<?xml version="1.0" encoding="utf-8"?>
<!-- Generator: Adobe Illustrator 25.2.1, SVG Export Plug-In . SVG Version: 6.00 Build 0)  -->
<svg version="1.1" id="Capa_1" xmlns="http://www.w3.org/2000/svg" xmlns:xlink="http://www.w3.org/1999/xlink" x="0px" y="0px"
	 viewBox="0 0 1080 1080" style="enable-background:new 0 0 1080 1080;" xml:space="preserve">
<style type="text/css">
	.st0{fill:#E9550F;}
</style>
<g id="XMLID_11811_">
	<path id="XMLID_11815_" class="st0" d="M780.14,434.37c4.64-19.14,7.01-38.81,7.01-58.44c0-136.27-110.88-247.15-247.15-247.15
		c-136.27,0-247.15,110.88-247.15,247.15c0,19.64,2.37,39.3,7.02,58.44c6.6,40.07,15.67,72.42,26.97,96.14
		c24.28,51,126.49,219.42,173.41,296.13c-63.44,8.08-92.87,35.35-92.87,61.07c0,30.59,41.51,63.52,132.63,63.52
		c91.13,0,132.63-32.93,132.63-63.52c0-25.72-29.44-52.99-92.87-61.07c46.92-76.71,149.12-245.13,173.41-296.13
		C764.46,506.79,773.54,474.44,780.14,434.37z M634.42,887.71c-2.58,7.22-34.5,25.35-94.42,25.35c-60.63,0-92.58-18.56-94.49-25.13
		c1.72-6.33,27.77-21.9,77-25.01c0.57,0.92,1.02,1.65,1.25,2.01c3.47,5.63,9.62,9.08,16.24,9.08c6.62,0,12.77-3.44,16.24-9.08
		c0.23-0.37,0.67-1.09,1.25-2.01C606.08,865.99,632.09,881.22,634.42,887.71z M361.29,514.09c-9.66-20.31-17.92-50.27-23.88-86.63
		c-0.08-0.49-0.18-0.99-0.3-1.47c-4.05-16.4-6.08-33.24-6.08-50.06c0-115.23,93.74-208.97,208.97-208.97
		c115.23,0,208.98,93.74,208.98,208.97c0,16.82-2.05,33.66-6.09,50.06c-0.11,0.48-0.22,0.98-0.3,1.47
		c-5.96,36.36-14.22,66.32-23.88,86.63C694.19,565.6,582.3,749.39,540,818.44C497.71,749.39,385.81,565.6,361.29,514.09z"/>
	<path id="XMLID_11812_" class="st0" d="M540,236.17c-73.13,0-132.63,59.51-132.63,132.64c0,73.13,59.5,132.63,132.63,132.63
		c73.13,0,132.63-59.5,132.63-132.63C672.63,295.68,613.13,236.17,540,236.17z M445.54,368.81c0-52.09,42.37-94.47,94.46-94.47
		c52.09,0,94.46,42.38,94.46,94.47s-42.37,94.46-94.46,94.46C487.91,463.27,445.54,420.9,445.54,368.81z"/>
</g>
</svg>
