<?xml version="1.0" encoding="utf-8"?>
<!-- Generator: Adobe Illustrator 25.2.1, SVG Export Plug-In . SVG Version: 6.00 Build 0)  -->
<svg version="1.1" id="Capa_1" xmlns="http://www.w3.org/2000/svg" xmlns:xlink="http://www.w3.org/1999/xlink" x="0px" y="0px"
	 viewBox="0 0 1080 1080" style="enable-background:new 0 0 1080 1080;" xml:space="preserve">
<style type="text/css">
	.st0{fill:#FFFFFF;}
</style>
<polygon class="st0" points="289.92,832.28 277.24,832.28 277.24,898.56 324.96,898.56 324.96,887.33 289.92,887.33 "/>
<path class="st0" d="M360.09,832.37l-33.86,66.19h13.76l5.07-10.41h31.24l5.16,10.41h13.77l-33.87-66.19H360.09z M351.22,877.1
	l9.51-20.01l9.42,20.01H351.22z"/>
<polygon class="st0" points="387.25,843.51 406.27,843.51 406.27,898.56 418.95,898.56 418.95,843.51 437.87,843.51 437.87,832.28 
	387.25,832.28 "/>
<rect x="448.38" y="832.37" class="st0" width="12.68" height="66.19"/>
<polygon class="st0" points="522.27,872.39 478.71,832.37 477.36,832.37 477.36,898.56 490.03,898.56 490.03,859.17 533.58,898.56 
	534.94,898.56 534.94,832.37 522.27,832.37 "/>
<polygon class="st0" points="590.54,898.56 603.21,898.56 603.21,871.58 635.18,871.58 635.18,859.89 603.21,859.89 603.21,843.51 
	639.25,843.51 639.25,832.28 590.54,832.28 "/>
<path class="st0" d="M704.85,841.11c-3.11-3.11-6.75-5.57-10.91-7.38c-4.17-1.81-8.63-2.72-13.4-2.72c-4.71,0-9.14,0.91-13.31,2.72
	c-4.17,1.81-7.81,4.27-10.91,7.38c-3.11,3.11-5.57,6.76-7.38,10.96c-1.81,4.2-2.72,8.65-2.72,13.36c0,4.77,0.9,9.24,2.72,13.4
	c1.81,4.16,4.27,7.8,7.38,10.91c3.1,3.11,6.74,5.57,10.91,7.38c4.17,1.81,8.6,2.72,13.31,2.72c4.77,0,9.24-0.91,13.4-2.72
	c4.17-1.81,7.8-4.27,10.91-7.38c3.11-3.11,5.57-6.75,7.38-10.91c1.81-4.17,2.71-8.63,2.71-13.4c0-4.71-0.9-9.16-2.71-13.36
	C710.42,847.87,707.96,844.22,704.85,841.11 M700.55,874.02c-1.14,2.72-2.69,5.12-4.65,7.2c-1.96,2.08-4.24,3.74-6.87,4.98
	c-2.62,1.24-5.44,1.86-8.44,1.86c-3.02,0-5.83-0.62-8.45-1.86c-2.62-1.24-4.91-2.9-6.87-4.98c-1.96-2.08-3.51-4.48-4.66-7.2
	c-1.14-2.72-1.71-5.58-1.71-8.6c0-2.96,0.57-5.81,1.71-8.56c1.15-2.75,2.7-5.15,4.66-7.2c1.96-2.05,4.24-3.7,6.87-4.93
	c2.62-1.24,5.43-1.85,8.45-1.85c3.01,0,5.83,0.62,8.44,1.85c2.62,1.24,4.91,2.88,6.87,4.93c1.96,2.05,3.51,4.45,4.65,7.2
	c1.14,2.75,1.72,5.6,1.72,8.56C702.27,868.44,701.7,871.3,700.55,874.02"/>
<path class="st0" d="M781.45,841.11c-3.11-3.11-6.75-5.57-10.91-7.38c-4.17-1.81-8.63-2.72-13.4-2.72c-4.71,0-9.14,0.91-13.31,2.72
	c-4.17,1.81-7.81,4.27-10.91,7.38c-3.11,3.11-5.57,6.76-7.38,10.96c-1.81,4.2-2.72,8.65-2.72,13.36c0,4.77,0.9,9.24,2.72,13.4
	c1.81,4.16,4.27,7.8,7.38,10.91c3.1,3.11,6.74,5.57,10.91,7.38c4.17,1.81,8.6,2.72,13.31,2.72c4.77,0,9.24-0.91,13.4-2.72
	c4.17-1.81,7.8-4.27,10.91-7.38c3.11-3.11,5.57-6.75,7.38-10.91c1.81-4.17,2.71-8.63,2.71-13.4c0-4.71-0.9-9.16-2.71-13.36
	C787.03,847.87,784.56,844.22,781.45,841.11 M777.16,874.02c-1.14,2.72-2.69,5.12-4.65,7.2c-1.96,2.08-4.24,3.74-6.87,4.98
	c-2.62,1.24-5.44,1.86-8.44,1.86c-3.02,0-5.83-0.62-8.45-1.86c-2.62-1.24-4.91-2.9-6.87-4.98c-1.96-2.08-3.51-4.48-4.66-7.2
	c-1.14-2.72-1.71-5.58-1.71-8.6c0-2.96,0.57-5.81,1.71-8.56c1.15-2.75,2.7-5.15,4.66-7.2c1.96-2.05,4.24-3.7,6.87-4.93
	c2.62-1.24,5.43-1.85,8.45-1.85c3.01,0,5.83,0.62,8.44,1.85c2.62,1.24,4.91,2.88,6.87,4.93c1.96,2.05,3.51,4.45,4.65,7.2
	c1.14,2.75,1.72,5.6,1.72,8.56C778.88,868.44,778.3,871.3,777.16,874.02"/>
<path class="st0" d="M852.23,840.61c-6.09-5.55-13.87-8.33-23.33-8.33h-26.12v66.28h26.12c4.7,0,9.02-0.69,12.97-2.08
	c3.95-1.39,7.4-3.44,10.36-6.16c3.25-2.96,5.71-6.53,7.36-10.73c1.66-4.2,2.49-8.92,2.49-14.17c0-5.19-0.83-9.88-2.49-14.08
	C857.94,847.14,855.49,843.57,852.23,840.61 M847.51,876.65c-1.27,2.84-2.88,5.06-4.84,6.65c-1.96,1.6-4.15,2.67-6.56,3.22
	c-2.42,0.54-4.8,0.82-7.16,0.82h-13.49v-43.65h13.49c2.29,0,4.65,0.27,7.06,0.82c2.41,0.54,4.62,1.6,6.61,3.17
	c1.99,1.57,3.62,3.79,4.89,6.66c1.27,2.87,1.9,6.59,1.9,11.18C849.41,870.1,848.78,873.81,847.51,876.65"/>
<path class="st0" d="M561.74,474.55v-22.92c-5.55,7.54-12.31,16.73-13.31,17.9c-1.66,1.94-3.42,3.91-5.28,5.93l-0.56,0.62
	l-17.27-20.74c6.09-4.65,10.29-8.64,12.61-11.97c2.36-3.33,3.54-7.06,3.54-11.17c0-5.97-2.15-10.9-6.46-14.81
	c-4.31-3.91-9.76-5.86-16.34-5.86c-6.79,0-12.34,2.02-16.65,6.05c-4.23,4.03-6.34,9.26-6.34,15.68c0,6.5,3.17,13.11,9.51,19.81
	c-0.37,0.29-0.66,0.52-0.87,0.68c-0.21,0.17-0.35,0.27-0.44,0.31l-6.28,4.26c-9.2,6.3-13.79,14.2-13.79,23.7
	c0,7.98,2.9,14.69,8.7,20.12c5.92,5.39,13.13,8.09,21.62,8.09c9.49,0,18.62-4.51,27.4-13.52l20.21,24.5V499.3l-10.39-12.74
	c2.61-2.84,4.86-5.35,6.74-7.53C559.52,477.38,560.73,475.89,561.74,474.55 M511.9,425.82c1.78-1.6,3.98-2.41,6.59-2.41
	c2.86,0,5.14,0.78,6.83,2.35c1.7,1.56,2.55,3.6,2.55,6.11c0,2.22-0.62,4.1-1.86,5.62c-0.58,0.78-1.53,1.74-2.86,2.87
	c-1.33,1.13-3,2.46-5.03,3.98l-1.18,0.86c-0.37-0.41-0.62-0.72-0.75-0.93l-3.6-4.32c-2.24-2.72-3.36-5.47-3.36-8.27
	C509.23,429.3,510.12,427.34,511.9,425.82 M513.45,497.24c-3.98,0-7.62-1.58-10.94-4.75c-3.19-3.29-4.78-6.91-4.78-10.86
	c0-2.76,1.06-5.37,3.17-7.84c2.15-2.47,6.19-5.74,12.12-9.81l0.81-0.56l18.95,22.9C525.49,493.59,519.04,497.24,513.45,497.24"/>
<path class="st0" d="M185.48,397.31c10.56,6.06,22.44,9.26,34.41,9.39c11.21,0.13,22.5-2.43,32.83-7.82l24.52,37.66v198.35h56.37
	c15.97,0,28.92-12.95,28.92-28.92V472l152.41,202.42c8.31,9.67,20.42,15.24,33.18,15.24h60l-154-213.24
	c-5.85-7.73-5.84-18.42,0.03-26.14c0,0,82.92-99.18,110.08-132.63c5.12-6.31,11.09-13.96,29.33-13.96h-86.39
	c-10.95,0-21.3,5.04-28.05,13.65L362.53,460.31v-69.56c0-19.44,16.7-34.83,36.04-32.93c3.42,0.34,6.93,0.83,10.52,1.48l-24.84-35.14
	c1.62-1,3.21-2.06,4.77-3.21c12.22-8.98,20.58-21.24,24.81-34.7c2.46-7.82,3.53-16.04,3.14-24.27
	c-0.65-13.43-5.18-26.86-13.85-38.53c-22.75-30.63-65.51-37.7-96.32-16.3c-24.48-16.27-58.49-15.91-84.61,3.29
	c-20.94,15.39-31.73,39.16-30.84,62.43c-4.65,2.02-9.16,4.57-13.41,7.69c-30.91,22.72-37.22,66.37-14.09,97.5
	C169.85,386.15,177.27,392.6,185.48,397.31 M198.98,284.04c4.01-2.89,8.25-5.16,12.63-6.85c-1.65-19.76,7.22-40.4,24.86-53.12
	c21.67-15.63,49.63-14.34,67.97,1.47c0.27-0.2,0.54-0.42,0.81-0.62c25.5-18.4,60.64-11.92,78.48,14.46
	c7.15,10.58,10.43,22.74,10.16,34.71c-0.2,9.05-2.45,17.98-6.58,26.03c-4.04,7.87-9.89,14.9-17.44,20.35
	c-1.64,1.19-3.33,2.25-5.04,3.23l15.68,19.86c0,0-71.18-14.25-100.65,62.94l-18.37-29.26c-3.83,3.72-11.52,10.01-22.87,12.33
	c-17.23,3.52-30.87-4.6-35.44-7.32c-2.89-1.72-11.37-7.21-18.07-17.12C167.27,338.75,173.48,302.44,198.98,284.04"/>
<path class="st0" d="M973.37,400.95C934.69,254.61,721.17,168.5,486.3,219.28c-16.72,3.62-33.08,7.87-49.04,12.67
	c2.66,6.8,4.2,13.87,4.66,20.96c15.18-4.67,30.77-8.76,46.73-12.19c210.43-45.16,402.58,35.47,438.23,170.35
	c35.65,134.88-110,292.01-320.42,337.17c-210.43,45.16-404.36-34.7-440.02-169.58c-13.16-49.78-1.37-102.69,29.31-151.91
	c-8.97-1.22-17.71-4.16-25.69-8.74c-1.85-1.06-3.65-2.22-5.41-3.46c-39.14,56.38-55.19,117.55-40.08,174.69
	c38.68,146.34,254.2,231.6,489.06,180.81C848.5,719.27,1012.05,547.28,973.37,400.95"/>
<path class="st0" d="M577.62,609.55c0,13.27,10.76,24.03,24.03,24.03h100.9c22.47,0,43.15-3.32,62.03-9.96
	c18.88-6.64,35.39-16.45,49.51-29.44c15.56-14.14,27.29-31.24,35.21-51.3c7.94-20.06,11.89-42.64,11.89-67.76
	c0-24.82-3.95-47.26-11.89-67.32c-7.92-20.06-19.66-37.16-35.21-51.3c-29.12-26.55-66.3-39.83-111.54-39.83h-100.9
	c-13.27,0-24.03,10.76-24.03,24.03V609.55z M660.6,579.98v-209.7v-0.02c0-5.38,3.5-9.91,8.25-11.51c0,0,0,0,0.01,0
	c0.32-0.11,0.65-0.2,0.99-0.28c0.05-0.01,0.11-0.03,0.16-0.04c0.28-0.06,0.57-0.11,0.86-0.15c0.11-0.02,0.22-0.04,0.34-0.05
	c0.23-0.03,0.47-0.04,0.71-0.05c0.14-0.01,0.27-0.03,0.41-0.03c0.05,0,0.1,0,0.15,0c0.04,0,0.07-0.01,0.11-0.01h0.09
	c0.42,0,0.84,0.01,1.27,0.07c0.49,0.05,0.97,0.13,1.46,0.19c0.71,0.09,1.42,0.18,2.12,0.28c0.81,0.12,1.6,0.25,2.41,0.38
	c0.37,0.06,0.74,0.12,1.1,0.19c0.93,0.16,1.86,0.34,2.78,0.52c0.17,0.03,0.33,0.07,0.5,0.1c37.57,7.69,68.58,33.28,83.78,67.47
	c0.09,0.2,0.17,0.39,0.26,0.59c0.52,1.19,1.02,2.39,1.5,3.6c0.2,0.5,0.41,1.01,0.6,1.51c0.07,0.18,0.14,0.35,0.21,0.53
	c0.01,0.02,0.01,0.04,0.02,0.05c0.1,0.26,0.18,0.52,0.27,0.77c0.42,1.14,0.83,2.29,1.21,3.44c0.06,0.18,0.13,0.35,0.19,0.53
	c0.05,0.14,0.09,0.27,0.14,0.41c0.49,1.51,0.95,3.04,1.38,4.57c0.05,0.17,0.1,0.35,0.15,0.52c0.46,1.68,0.9,3.38,1.29,5.09
	c0.16,0.69,0.3,1.4,0.46,2.11c0.14,0.71,0.29,1.41,0.42,2.12c0.27,1.43,0.5,2.86,0.74,4.3c0.1,0.72,0.2,1.43,0.3,2.15v0.02v0.01
	c0.09,0.72,0.19,1.44,0.26,2.17c0.14,1.23,0.26,2.45,0.36,3.68c0.09,1.07,0.16,2.15,0.22,3.23c0.03,0.63,0.07,1.28,0.09,1.92
	c0.03,0.63,0.04,1.25,0.06,1.88c0.01,0.82,0.03,1.63,0.03,2.45v0.02v0.24v0.02c0,0.82-0.01,1.63-0.03,2.45
	c-0.01,0.62-0.03,1.24-0.06,1.88c-0.01,0.64-0.06,1.28-0.09,1.92c-0.06,1.08-0.13,2.16-0.22,3.23c-0.1,1.23-0.22,2.45-0.36,3.68
	c-0.07,0.72-0.17,1.44-0.26,2.17v0.01v0.02c-0.1,0.72-0.2,1.43-0.3,2.15c-0.23,1.44-0.46,2.87-0.74,4.3
	c-0.13,0.71-0.27,1.41-0.42,2.12c-0.16,0.71-0.3,1.41-0.46,2.11c-0.39,1.71-0.82,3.41-1.29,5.09c-0.05,0.17-0.1,0.35-0.15,0.52
	c-0.43,1.54-0.89,3.06-1.38,4.57c-0.04,0.14-0.09,0.27-0.14,0.41c-0.06,0.18-0.13,0.35-0.19,0.53c-0.39,1.16-0.79,2.3-1.21,3.44
	c-0.09,0.26-0.18,0.52-0.27,0.77c-0.01,0.02-0.01,0.04-0.02,0.05c-0.07,0.18-0.14,0.35-0.21,0.53c-0.19,0.51-0.4,1.01-0.6,1.51
	c-0.48,1.21-0.98,2.41-1.51,3.6c-0.09,0.2-0.17,0.39-0.26,0.59c-15.2,34.18-46.22,59.77-83.78,67.47c-0.17,0.03-0.33,0.07-0.49,0.1
	c-0.92,0.19-1.85,0.36-2.78,0.52c-0.36,0.06-0.73,0.12-1.1,0.18c-0.8,0.13-1.6,0.27-2.41,0.38c-0.7,0.1-1.41,0.19-2.12,0.28
	c-0.49,0.06-0.97,0.14-1.46,0.19c-0.43,0.06-0.85,0.07-1.27,0.07h-0.09c-0.03,0-0.07,0-0.11-0.01c-0.05,0-0.1,0-0.15,0
	c-0.14,0-0.27-0.02-0.41-0.03c-0.24-0.01-0.48-0.03-0.71-0.05c-0.11-0.01-0.23-0.04-0.34-0.05c-0.29-0.04-0.58-0.09-0.86-0.15
	c-0.05-0.01-0.11-0.03-0.16-0.04c-0.33-0.08-0.66-0.17-0.99-0.28c0,0,0,0-0.01,0c-4.75-1.59-8.25-6.13-8.25-11.51V579.98z"/>
</svg>
